# xmcd CD database file generated by OrangeCD 5.2
#
# Track frame offsets:
#	150
#	11832
#	27076
#	39669
#	53604
#	64324
#	78853
#	93721
#	105968
#	118547
#
# Disc length: 1766 seconds
#
# Revision: 0
# Processed by: cddbd v1.5.1PL0 Copyright (c) Steve Scherf et al.
# Submitted via: OrangeCD 5.2
#
DISCID=7506e40a
DTITLE=Johnny Cash - The Adventures Of Johnny Cash
DYEAR=1985
DGENRE=Country
TTITLE0=Georgia On A Fast Train
TTITLE1=John's
TTITLE2=Fair Weather Friends
TTITLE3=Paradise
TTITLE4=We Must Believe In Magic
TTITLE5=Only Love
TTITLE6=Good American Guest
TTITLE7=I'll Cross Over Jordan
TTITLE8=Sing A Song
TTITLE9=Ain't Gonna Hobo No More
EXTD=
EXTT0=
EXTT1=
EXTT2=
EXTT3=
EXTT4=
EXTT5=
EXTT6=
EXTT7=
EXTT8=
EXTT9=
PLAYORDER=
